<mxfile host="app.diagrams.net" modified="2024-02-18T17:07:49.625Z" agent="Mozilla/5.0 (Windows NT 10.0; Win64; x64) AppleWebKit/537.36 (KHTML, like Gecko) Chrome/121.0.0.0 Safari/537.36" etag="0yNxRFdn84ZAG0JOPxEG" version="23.1.5" type="device">
  <diagram name="Halaman-1" id="Z3r5V_3n4lGPi-JphTzs">
    <mxGraphModel dx="1687" dy="908" grid="1" gridSize="10" guides="1" tooltips="1" connect="1" arrows="1" fold="1" page="1" pageScale="1" pageWidth="827" pageHeight="1169" math="0" shadow="0">
      <root>
        <mxCell id="0" />
        <mxCell id="1" parent="0" />
        <mxCell id="1sj6HxGjkj4vQl8IHPyI-49" style="edgeStyle=orthogonalEdgeStyle;rounded=0;orthogonalLoop=1;jettySize=auto;html=1;entryX=0;entryY=0.5;entryDx=0;entryDy=0;sketch=1;curveFitting=1;jiggle=2;labelBackgroundColor=none;fontColor=default;" edge="1" parent="1" source="1sj6HxGjkj4vQl8IHPyI-6" target="1sj6HxGjkj4vQl8IHPyI-7">
          <mxGeometry relative="1" as="geometry" />
        </mxCell>
        <mxCell id="1sj6HxGjkj4vQl8IHPyI-6" value="Inisialisasi" style="rounded=1;whiteSpace=wrap;html=1;arcSize=20;sketch=1;curveFitting=1;jiggle=2;labelBackgroundColor=none;" vertex="1" parent="1">
          <mxGeometry x="140" y="40" width="120" height="40" as="geometry" />
        </mxCell>
        <mxCell id="1sj6HxGjkj4vQl8IHPyI-50" style="edgeStyle=orthogonalEdgeStyle;rounded=0;orthogonalLoop=1;jettySize=auto;html=1;entryX=0.5;entryY=0;entryDx=0;entryDy=0;sketch=1;curveFitting=1;jiggle=2;labelBackgroundColor=none;fontColor=default;" edge="1" parent="1" source="1sj6HxGjkj4vQl8IHPyI-7" target="1sj6HxGjkj4vQl8IHPyI-10">
          <mxGeometry relative="1" as="geometry" />
        </mxCell>
        <mxCell id="1sj6HxGjkj4vQl8IHPyI-7" value="epoch = 1" style="rounded=1;whiteSpace=wrap;html=1;arcSize=20;sketch=1;curveFitting=1;jiggle=2;labelBackgroundColor=none;" vertex="1" parent="1">
          <mxGeometry x="290" y="40" width="120" height="40" as="geometry" />
        </mxCell>
        <mxCell id="1sj6HxGjkj4vQl8IHPyI-11" value="" style="group;sketch=1;curveFitting=1;jiggle=2;labelBackgroundColor=none;" vertex="1" connectable="0" parent="1">
          <mxGeometry x="270" y="110" width="160" height="30" as="geometry" />
        </mxCell>
        <mxCell id="1sj6HxGjkj4vQl8IHPyI-9" value="" style="verticalLabelPosition=bottom;verticalAlign=top;html=1;shape=hexagon;perimeter=hexagonPerimeter2;arcSize=6;size=0.05;sketch=1;curveFitting=1;jiggle=2;labelBackgroundColor=none;" vertex="1" parent="1sj6HxGjkj4vQl8IHPyI-11">
          <mxGeometry width="160" height="30" as="geometry" />
        </mxCell>
        <mxCell id="1sj6HxGjkj4vQl8IHPyI-10" value="epoch &amp;lt; MAX_EPOCH" style="text;html=1;align=center;verticalAlign=middle;whiteSpace=wrap;rounded=0;sketch=1;curveFitting=1;jiggle=2;labelBackgroundColor=none;" vertex="1" parent="1sj6HxGjkj4vQl8IHPyI-11">
          <mxGeometry x="10" width="140" height="30" as="geometry" />
        </mxCell>
        <mxCell id="1sj6HxGjkj4vQl8IHPyI-16" value="" style="group;sketch=1;curveFitting=1;jiggle=2;labelBackgroundColor=none;" vertex="1" connectable="0" parent="1">
          <mxGeometry x="390" y="160" width="190" height="30" as="geometry" />
        </mxCell>
        <mxCell id="1sj6HxGjkj4vQl8IHPyI-13" value="" style="verticalLabelPosition=bottom;verticalAlign=top;html=1;shape=hexagon;perimeter=hexagonPerimeter2;arcSize=6;size=0.05;container=0;flipH=1;sketch=1;curveFitting=1;jiggle=2;labelBackgroundColor=none;" vertex="1" parent="1sj6HxGjkj4vQl8IHPyI-16">
          <mxGeometry width="190" height="30" as="geometry" />
        </mxCell>
        <mxCell id="1sj6HxGjkj4vQl8IHPyI-14" value="for t = 0 to datatraining.length-1" style="text;html=1;align=center;verticalAlign=middle;whiteSpace=wrap;rounded=0;container=0;flipH=1;sketch=1;curveFitting=1;jiggle=2;labelBackgroundColor=none;" vertex="1" parent="1sj6HxGjkj4vQl8IHPyI-16">
          <mxGeometry x="10" width="180" height="30" as="geometry" />
        </mxCell>
        <mxCell id="1sj6HxGjkj4vQl8IHPyI-30" style="edgeStyle=orthogonalEdgeStyle;rounded=0;orthogonalLoop=1;jettySize=auto;html=1;sketch=1;curveFitting=1;jiggle=2;labelBackgroundColor=none;fontColor=default;" edge="1" parent="1" source="1sj6HxGjkj4vQl8IHPyI-17" target="1sj6HxGjkj4vQl8IHPyI-18">
          <mxGeometry relative="1" as="geometry" />
        </mxCell>
        <mxCell id="1sj6HxGjkj4vQl8IHPyI-17" value="Inisialisasi Neuron Input dan Target" style="rounded=1;whiteSpace=wrap;html=1;arcSize=20;sketch=1;curveFitting=1;jiggle=2;labelBackgroundColor=none;" vertex="1" parent="1">
          <mxGeometry x="535" y="220" width="120" height="40" as="geometry" />
        </mxCell>
        <mxCell id="1sj6HxGjkj4vQl8IHPyI-31" style="edgeStyle=orthogonalEdgeStyle;rounded=0;orthogonalLoop=1;jettySize=auto;html=1;sketch=1;curveFitting=1;jiggle=2;labelBackgroundColor=none;fontColor=default;" edge="1" parent="1" source="1sj6HxGjkj4vQl8IHPyI-18" target="1sj6HxGjkj4vQl8IHPyI-19">
          <mxGeometry relative="1" as="geometry" />
        </mxCell>
        <mxCell id="1sj6HxGjkj4vQl8IHPyI-18" value="Hitung Net-Z" style="rounded=1;whiteSpace=wrap;html=1;arcSize=20;sketch=1;curveFitting=1;jiggle=2;labelBackgroundColor=none;" vertex="1" parent="1">
          <mxGeometry x="682" y="220" width="120" height="40" as="geometry" />
        </mxCell>
        <mxCell id="1sj6HxGjkj4vQl8IHPyI-32" style="edgeStyle=orthogonalEdgeStyle;rounded=0;orthogonalLoop=1;jettySize=auto;html=1;entryX=0;entryY=0.5;entryDx=0;entryDy=0;sketch=1;curveFitting=1;jiggle=2;labelBackgroundColor=none;fontColor=default;" edge="1" parent="1" source="1sj6HxGjkj4vQl8IHPyI-19" target="1sj6HxGjkj4vQl8IHPyI-20">
          <mxGeometry relative="1" as="geometry" />
        </mxCell>
        <mxCell id="1sj6HxGjkj4vQl8IHPyI-19" value="Activation Z" style="rounded=1;whiteSpace=wrap;html=1;arcSize=20;sketch=1;curveFitting=1;jiggle=2;labelBackgroundColor=none;" vertex="1" parent="1">
          <mxGeometry x="828" y="220" width="120" height="40" as="geometry" />
        </mxCell>
        <mxCell id="1sj6HxGjkj4vQl8IHPyI-33" style="edgeStyle=orthogonalEdgeStyle;rounded=0;orthogonalLoop=1;jettySize=auto;html=1;sketch=1;curveFitting=1;jiggle=2;labelBackgroundColor=none;fontColor=default;" edge="1" parent="1" source="1sj6HxGjkj4vQl8IHPyI-20" target="1sj6HxGjkj4vQl8IHPyI-21">
          <mxGeometry relative="1" as="geometry" />
        </mxCell>
        <mxCell id="1sj6HxGjkj4vQl8IHPyI-20" value="Hitung Net-Y" style="rounded=1;whiteSpace=wrap;html=1;arcSize=20;sketch=1;curveFitting=1;jiggle=2;labelBackgroundColor=none;" vertex="1" parent="1">
          <mxGeometry x="975" y="220" width="120" height="40" as="geometry" />
        </mxCell>
        <mxCell id="1sj6HxGjkj4vQl8IHPyI-34" style="edgeStyle=orthogonalEdgeStyle;rounded=0;orthogonalLoop=1;jettySize=auto;html=1;entryX=1;entryY=0.5;entryDx=0;entryDy=0;sketch=1;curveFitting=1;jiggle=2;labelBackgroundColor=none;fontColor=default;" edge="1" parent="1" source="1sj6HxGjkj4vQl8IHPyI-21" target="1sj6HxGjkj4vQl8IHPyI-22">
          <mxGeometry relative="1" as="geometry">
            <Array as="points">
              <mxPoint x="1260" y="240" />
              <mxPoint x="1260" y="280" />
              <mxPoint x="1261" y="280" />
              <mxPoint x="1261" y="308" />
            </Array>
          </mxGeometry>
        </mxCell>
        <mxCell id="1sj6HxGjkj4vQl8IHPyI-21" value="Activation Y" style="rounded=1;whiteSpace=wrap;html=1;arcSize=20;sketch=1;curveFitting=1;jiggle=2;labelBackgroundColor=none;" vertex="1" parent="1">
          <mxGeometry x="1121" y="220" width="120" height="40" as="geometry" />
        </mxCell>
        <mxCell id="1sj6HxGjkj4vQl8IHPyI-35" style="edgeStyle=orthogonalEdgeStyle;rounded=0;orthogonalLoop=1;jettySize=auto;html=1;sketch=1;curveFitting=1;jiggle=2;labelBackgroundColor=none;fontColor=default;" edge="1" parent="1" source="1sj6HxGjkj4vQl8IHPyI-22" target="1sj6HxGjkj4vQl8IHPyI-23">
          <mxGeometry relative="1" as="geometry" />
        </mxCell>
        <mxCell id="1sj6HxGjkj4vQl8IHPyI-22" value="Hitung unit kesalahan_Y" style="rounded=1;whiteSpace=wrap;html=1;arcSize=20;sketch=1;curveFitting=1;jiggle=2;labelBackgroundColor=none;" vertex="1" parent="1">
          <mxGeometry x="1121" y="288" width="120" height="40" as="geometry" />
        </mxCell>
        <mxCell id="1sj6HxGjkj4vQl8IHPyI-36" style="edgeStyle=orthogonalEdgeStyle;rounded=0;orthogonalLoop=1;jettySize=auto;html=1;sketch=1;curveFitting=1;jiggle=2;labelBackgroundColor=none;fontColor=default;" edge="1" parent="1" source="1sj6HxGjkj4vQl8IHPyI-23" target="1sj6HxGjkj4vQl8IHPyI-24">
          <mxGeometry relative="1" as="geometry" />
        </mxCell>
        <mxCell id="1sj6HxGjkj4vQl8IHPyI-23" value="Hitung delta W" style="rounded=1;whiteSpace=wrap;html=1;arcSize=20;sketch=1;curveFitting=1;jiggle=2;labelBackgroundColor=none;" vertex="1" parent="1">
          <mxGeometry x="975" y="288" width="120" height="40" as="geometry" />
        </mxCell>
        <mxCell id="1sj6HxGjkj4vQl8IHPyI-37" style="edgeStyle=orthogonalEdgeStyle;rounded=0;orthogonalLoop=1;jettySize=auto;html=1;sketch=1;curveFitting=1;jiggle=2;labelBackgroundColor=none;fontColor=default;" edge="1" parent="1" source="1sj6HxGjkj4vQl8IHPyI-24" target="1sj6HxGjkj4vQl8IHPyI-25">
          <mxGeometry relative="1" as="geometry" />
        </mxCell>
        <mxCell id="1sj6HxGjkj4vQl8IHPyI-24" value="Hitung Net unit kesalahan_Y" style="rounded=1;whiteSpace=wrap;html=1;arcSize=20;sketch=1;curveFitting=1;jiggle=2;labelBackgroundColor=none;" vertex="1" parent="1">
          <mxGeometry x="828" y="288" width="120" height="40" as="geometry" />
        </mxCell>
        <mxCell id="1sj6HxGjkj4vQl8IHPyI-38" style="edgeStyle=orthogonalEdgeStyle;rounded=0;orthogonalLoop=1;jettySize=auto;html=1;sketch=1;curveFitting=1;jiggle=2;labelBackgroundColor=none;fontColor=default;" edge="1" parent="1" source="1sj6HxGjkj4vQl8IHPyI-25" target="1sj6HxGjkj4vQl8IHPyI-26">
          <mxGeometry relative="1" as="geometry" />
        </mxCell>
        <mxCell id="1sj6HxGjkj4vQl8IHPyI-25" value="Hitung unit kesalahan_Z" style="rounded=1;whiteSpace=wrap;html=1;arcSize=20;sketch=1;curveFitting=1;jiggle=2;labelBackgroundColor=none;" vertex="1" parent="1">
          <mxGeometry x="682" y="288" width="120" height="40" as="geometry" />
        </mxCell>
        <mxCell id="1sj6HxGjkj4vQl8IHPyI-39" style="edgeStyle=orthogonalEdgeStyle;rounded=0;orthogonalLoop=1;jettySize=auto;html=1;sketch=1;curveFitting=1;jiggle=2;labelBackgroundColor=none;fontColor=default;" edge="1" parent="1" source="1sj6HxGjkj4vQl8IHPyI-26" target="1sj6HxGjkj4vQl8IHPyI-27">
          <mxGeometry relative="1" as="geometry" />
        </mxCell>
        <mxCell id="1sj6HxGjkj4vQl8IHPyI-26" value="Hitung delta V" style="rounded=1;whiteSpace=wrap;html=1;arcSize=20;sketch=1;curveFitting=1;jiggle=2;labelBackgroundColor=none;" vertex="1" parent="1">
          <mxGeometry x="535" y="288" width="120" height="40" as="geometry" />
        </mxCell>
        <mxCell id="1sj6HxGjkj4vQl8IHPyI-40" style="edgeStyle=orthogonalEdgeStyle;rounded=0;orthogonalLoop=1;jettySize=auto;html=1;sketch=1;curveFitting=1;jiggle=2;labelBackgroundColor=none;fontColor=default;" edge="1" parent="1" source="1sj6HxGjkj4vQl8IHPyI-27" target="1sj6HxGjkj4vQl8IHPyI-28">
          <mxGeometry relative="1" as="geometry" />
        </mxCell>
        <mxCell id="1sj6HxGjkj4vQl8IHPyI-27" value="Update bobot W" style="rounded=1;whiteSpace=wrap;html=1;arcSize=20;sketch=1;curveFitting=1;jiggle=2;labelBackgroundColor=none;" vertex="1" parent="1">
          <mxGeometry x="535" y="355" width="120" height="40" as="geometry" />
        </mxCell>
        <mxCell id="1sj6HxGjkj4vQl8IHPyI-42" style="edgeStyle=orthogonalEdgeStyle;rounded=0;orthogonalLoop=1;jettySize=auto;html=1;sketch=1;curveFitting=1;jiggle=2;labelBackgroundColor=none;fontColor=default;" edge="1" parent="1" source="1sj6HxGjkj4vQl8IHPyI-28" target="1sj6HxGjkj4vQl8IHPyI-14">
          <mxGeometry relative="1" as="geometry">
            <Array as="points">
              <mxPoint x="510" y="443" />
            </Array>
          </mxGeometry>
        </mxCell>
        <mxCell id="1sj6HxGjkj4vQl8IHPyI-28" value="Update bobot V" style="rounded=1;whiteSpace=wrap;html=1;arcSize=20;sketch=1;curveFitting=1;jiggle=2;labelBackgroundColor=none;" vertex="1" parent="1">
          <mxGeometry x="535" y="423" width="120" height="40" as="geometry" />
        </mxCell>
        <mxCell id="1sj6HxGjkj4vQl8IHPyI-29" style="edgeStyle=orthogonalEdgeStyle;rounded=0;orthogonalLoop=1;jettySize=auto;html=1;entryX=0.549;entryY=-0.012;entryDx=0;entryDy=0;entryPerimeter=0;sketch=1;curveFitting=1;jiggle=2;labelBackgroundColor=none;fontColor=default;" edge="1" parent="1" source="1sj6HxGjkj4vQl8IHPyI-14" target="1sj6HxGjkj4vQl8IHPyI-17">
          <mxGeometry relative="1" as="geometry">
            <Array as="points">
              <mxPoint x="600" y="175" />
              <mxPoint x="600" y="200" />
              <mxPoint x="601" y="200" />
            </Array>
          </mxGeometry>
        </mxCell>
        <mxCell id="1sj6HxGjkj4vQl8IHPyI-43" style="edgeStyle=orthogonalEdgeStyle;rounded=0;orthogonalLoop=1;jettySize=auto;html=1;entryX=0.636;entryY=0.933;entryDx=0;entryDy=0;entryPerimeter=0;sketch=1;curveFitting=1;jiggle=2;labelBackgroundColor=none;fontColor=default;" edge="1" parent="1" source="1sj6HxGjkj4vQl8IHPyI-14" target="1sj6HxGjkj4vQl8IHPyI-10">
          <mxGeometry relative="1" as="geometry">
            <Array as="points">
              <mxPoint x="490" y="260" />
              <mxPoint x="369" y="260" />
            </Array>
          </mxGeometry>
        </mxCell>
        <mxCell id="1sj6HxGjkj4vQl8IHPyI-45" style="edgeStyle=orthogonalEdgeStyle;rounded=0;orthogonalLoop=1;jettySize=auto;html=1;entryX=0.535;entryY=-0.044;entryDx=0;entryDy=0;entryPerimeter=0;sketch=1;curveFitting=1;jiggle=2;labelBackgroundColor=none;fontColor=default;" edge="1" parent="1" source="1sj6HxGjkj4vQl8IHPyI-9" target="1sj6HxGjkj4vQl8IHPyI-14">
          <mxGeometry relative="1" as="geometry">
            <Array as="points">
              <mxPoint x="484" y="125" />
            </Array>
          </mxGeometry>
        </mxCell>
        <mxCell id="1sj6HxGjkj4vQl8IHPyI-48" style="edgeStyle=orthogonalEdgeStyle;rounded=0;orthogonalLoop=1;jettySize=auto;html=1;sketch=1;curveFitting=1;jiggle=2;labelBackgroundColor=none;fontColor=default;" edge="1" parent="1" source="1sj6HxGjkj4vQl8IHPyI-47" target="1sj6HxGjkj4vQl8IHPyI-6">
          <mxGeometry relative="1" as="geometry" />
        </mxCell>
        <mxCell id="1sj6HxGjkj4vQl8IHPyI-47" value="Start" style="rounded=1;whiteSpace=wrap;html=1;arcSize=50;sketch=1;curveFitting=1;jiggle=2;labelBackgroundColor=none;" vertex="1" parent="1">
          <mxGeometry x="40" y="40" width="81" height="40" as="geometry" />
        </mxCell>
        <mxCell id="1sj6HxGjkj4vQl8IHPyI-51" value="Finish" style="rounded=1;whiteSpace=wrap;html=1;arcSize=50;sketch=1;curveFitting=1;jiggle=2;labelBackgroundColor=none;" vertex="1" parent="1">
          <mxGeometry x="309" y="280" width="81" height="40" as="geometry" />
        </mxCell>
        <mxCell id="1sj6HxGjkj4vQl8IHPyI-52" style="edgeStyle=orthogonalEdgeStyle;rounded=0;orthogonalLoop=1;jettySize=auto;html=1;entryX=0.5;entryY=0;entryDx=0;entryDy=0;sketch=1;curveFitting=1;jiggle=2;labelBackgroundColor=none;fontColor=default;" edge="1" parent="1" source="1sj6HxGjkj4vQl8IHPyI-10" target="1sj6HxGjkj4vQl8IHPyI-51">
          <mxGeometry relative="1" as="geometry" />
        </mxCell>
      </root>
    </mxGraphModel>
  </diagram>
</mxfile>
